<svg width="248" height="64" viewBox="0 0 248 64" fill="none" xmlns="http://www.w3.org/2000/svg">
<path d="M77.687 49.3248V34.7204L77.3264 28.8154H77.9962L79.9542 34.7204L85.1068 47.2158H96.8546L102.007 34.7204L103.965 28.8154H104.635L104.274 34.7204V49.3248H113.961V14H100.822L94.7934 28.6572L91.5476 37.7784H90.8776L87.4768 28.6572L81.1392 14H68V49.3248H77.687ZM131.538 49.8522C140.298 49.8522 145.811 45.6868 145.811 39.7818V39.1492H136.124V39.729C136.124 41.3108 135.094 41.9962 131.178 41.9962C127.056 41.9962 125.664 41.1 125.51 37.8838H145.863C145.966 36.9348 146.017 36.2494 146.017 35.353C146.017 26.8118 140.298 22.2248 131.332 22.2248C122.676 22.2248 116.544 27.3918 116.544 36.0384C116.544 46.0032 122.728 49.8522 131.538 49.8522ZM131.126 29.817C134.733 29.817 136.279 30.6078 136.639 32.875H125.664C126.077 30.6078 127.571 29.817 131.126 29.817ZM163.088 49.8522C171.847 49.8522 177.36 45.6868 177.36 39.7818V39.1492H167.674V39.729C167.674 41.3108 166.643 41.9962 162.727 41.9962C158.605 41.9962 157.214 41.1 157.059 37.8838H177.412C177.515 36.9348 177.567 36.2494 177.567 35.353C177.567 26.8118 171.847 22.2248 162.882 22.2248C154.225 22.2248 148.094 27.3918 148.094 36.0384C148.094 46.0032 154.277 49.8522 163.088 49.8522ZM162.676 29.817C166.283 29.817 167.828 30.6078 168.189 32.875H157.214C157.626 30.6078 159.12 29.817 162.676 29.817ZM189.845 58.288V42.4708H190.361C191.134 46.8996 194.019 49.8522 200.15 49.8522C207.776 49.8522 212.052 44.6852 212.052 36.0384C212.052 27.4446 207.672 22.2248 199.738 22.2248C193.658 22.2248 190.567 24.6502 189.742 29.9226H189.227V22.7522H180.159V58.288H189.845ZM189.845 36.3548V35.9858C189.845 32.1368 191.906 31.2934 196.235 31.2934C200.718 31.2934 202.264 32.506 202.264 36.0384C202.264 39.571 200.718 40.8364 196.235 40.8364C191.906 40.8364 189.845 40.0982 189.845 36.3548ZM229.002 49.8522C238.018 49.8522 244.15 44.6324 244.15 36.0384C244.15 27.3918 238.018 22.2248 229.002 22.2248C219.986 22.2248 213.854 27.3918 213.854 36.0384C213.854 44.6324 219.986 49.8522 229.002 49.8522ZM229.002 41.1C224.624 41.1 223.438 39.8874 223.438 36.0384C223.438 32.1896 224.624 30.9244 229.002 30.9244C233.382 30.9244 234.568 32.1896 234.568 36.0384C234.568 39.8874 233.382 41.1 229.002 41.1Z" fill="white"/>
<path d="M52 32C52 44.1502 41.2548 54 28 54C14.7452 54 4 44.1502 4 32C4 19.8497 14.7452 10 28 10C41.2548 10 52 19.8497 52 32ZM10.24 32C10.24 40.9912 18.1914 48.28 28 48.28C37.8086 48.28 45.76 40.9912 45.76 32C45.76 23.0088 37.8086 15.72 28 15.72C18.1914 15.72 10.24 23.0088 10.24 32Z" fill="white"/>
<path d="M18 32C18 29.7908 19.7909 28 22 28H34C36.2092 28 38 29.7908 38 32C38 34.2092 36.2092 36 34 36H22C19.7909 36 18 34.2092 18 32Z" fill="white"/>
</svg>
