<svg width="23" height="24" viewBox="0 0 23 24" fill="none" xmlns="http://www.w3.org/2000/svg">
<path d="M22.5 12.6758C22.5 18.93 17.4632 24 11.25 24C5.0368 24 0 18.93 0 12.6758C0 6.42164 5.0368 1.35163 11.25 1.35163C17.4632 1.35163 22.5 6.42164 22.5 12.6758Z" fill="#2E2C33"/>
<path d="M20.8215 12.5913C20.8215 14.2748 20.3871 15.9294 19.5608 17.393C18.7345 18.8567 17.5446 20.0792 16.1078 20.9407C14.671 21.8023 13.0365 22.2734 11.3644 22.3078C9.69228 22.3423 8.03997 21.939 6.56931 21.1373C5.09865 20.3357 3.86007 19.1633 2.97492 17.7349C2.08977 16.3066 1.5884 14.6713 1.51994 12.9892C1.45147 11.3072 1.81824 9.63605 2.58434 8.13958C3.35043 6.64312 4.48957 5.37264 5.89015 4.45259L11.1667 12.5913H20.8215Z" fill="white"/>
<path d="M22.4407 6.30806C22.4407 9.7919 19.635 12.6161 16.174 12.6161C12.7129 12.6161 9.90723 9.7919 9.90723 6.30806C9.90723 2.82421 12.7129 0 16.174 0C19.635 0 22.4407 2.82421 22.4407 6.30806Z" fill="#2E2C33"/>
<path d="M20.9281 6.25357C20.9281 8.92652 18.7754 11.0934 16.12 11.0934C13.4645 11.0934 11.3119 8.92652 11.3119 6.25357C11.3119 3.58062 13.4645 1.41377 16.12 1.41377C18.7754 1.41377 20.9281 3.58062 20.9281 6.25357Z" fill="white"/>
</svg>
