<svg width="32" height="32" viewBox="0 0 32 32" fill="none" xmlns="http://www.w3.org/2000/svg">
<path d="M27.9689 12.3812C27.9449 12.1699 27.7888 12.0099 27.6014 12.0047C27.5591 12.0032 23.3544 11.8581 20.0644 10.0466C18.6432 9.2641 16.8055 9.06321 14.866 9.46175C13.246 6.00465 13.1373 0.486465 13.1364 0.425512C13.1329 0.221396 13.0052 0.0480302 12.8295 0.00834739C12.6532 -0.0315836 12.4773 0.0748175 12.4066 0.261822C12.3301 0.464204 10.5388 5.26331 11.2869 8.90886C11.4197 9.55743 11.5585 10.1266 11.7028 10.6276C10.1528 11.4629 8.79053 12.6085 7.75208 13.9649C3.53545 19.4746 4.00384 27.1504 4.02566 27.4742C4.04092 27.6996 4.20636 27.8737 4.40493 27.8737H10.4604C10.2952 29.8428 10.2097 31.4045 10.2026 31.5409C10.196 31.66 10.2331 31.7765 10.3054 31.8638C10.378 31.9507 10.4783 32 10.5831 32H15.6682C15.8785 32 16.0488 31.8063 16.0488 31.567V27.8737H22.2058C22.3723 27.8737 22.5195 27.7507 22.569 27.5697C22.6187 27.3886 22.5587 27.1922 22.4218 27.0848C22.3741 27.0468 17.6424 23.2889 17.6424 19.5628C17.6424 17.3969 20.2925 17.1137 23.4942 16.9845C24.8116 16.9314 25.8522 16.8895 26.434 16.581C28.3131 15.5824 27.9839 12.5114 27.9689 12.3812ZM12.5026 2.5754C12.6914 4.65154 13.1607 7.81029 14.3131 10.1088C14.3248 10.141 14.341 10.1705 14.3591 10.1981C14.4796 10.4327 14.6054 10.6614 14.7412 10.8751C14.4722 11.5862 13.9837 12.462 13.5975 12.462C13.5911 12.462 13.585 12.4617 13.5789 12.4612C13.3928 12.4473 12.7302 12.1363 12.0283 8.71191C11.6192 6.71857 12.066 4.25967 12.5026 2.5754ZM6.13017 18.6104C5.00389 21.9974 4.92895 25.3616 4.97995 27.0079H4.77027C4.74498 25.8303 4.79619 22.2306 6.13017 18.6104ZM8.6229 17.8411C7.54701 21.4862 7.48139 25.2576 7.52257 27.0081H6.98003C6.93709 25.4704 7.0034 21.4057 8.6229 17.8411ZM8.2833 27.0081C8.22707 24.6991 8.35806 18.6658 10.9304 14.4074C11.0405 14.2251 11.0119 13.9771 10.8641 13.8332C10.7165 13.6899 10.4973 13.6953 10.3554 13.8474C10.1747 14.0416 9.99789 14.2388 9.82722 14.4364C6.31613 18.557 6.16441 24.9133 6.21871 27.0086H5.74113C5.66353 24.6224 5.84728 18.3349 9.48848 14.0637C10.3582 13.0437 11.4243 12.0558 12.0024 11.5404C12.2005 12.0625 12.4108 12.464 12.6349 12.7547C12.4224 13.0399 12.0534 13.5618 11.5047 14.4092C8.82741 18.5455 8.71642 24.9179 8.75916 27.0081L8.2833 27.0081ZM12.1065 21.1554C12.4472 19.6834 12.8511 18.2739 13.1934 17.165C12.9743 18.3637 12.7561 19.6606 12.5911 20.8704C12.1898 23.8141 11.9662 29.586 11.9117 31.1346H10.9899C11.0897 29.5006 11.4659 23.9256 12.1065 21.1554ZM13.1461 31.1345H13.1319L12.673 31.1253C12.7295 29.5241 12.9507 23.8757 13.3427 21.0034C13.6129 19.019 14.0297 16.7901 14.3552 15.165H14.8388C14.5407 16.6475 14.0936 18.9994 13.8089 21.0862C13.4277 23.8858 13.203 29.5535 13.1461 31.1345ZM15.2885 31.1345H13.9079C13.9661 29.5239 14.188 23.9586 14.5616 21.2189C14.7597 19.7673 15.0381 18.1822 15.2885 16.8582V31.1345ZM26.1127 15.796C25.6711 16.0304 24.6009 16.0733 23.4679 16.1189C20.6887 16.2313 16.8823 16.3848 16.8823 19.5624C16.8823 22.6814 19.6093 25.6388 21.0811 27.0081H16.0492V14.7318C16.0492 14.493 15.879 14.2988 15.6686 14.2988H13.5888C13.4347 14.2988 13.2956 14.4047 13.2369 14.5669C13.2261 14.5972 12.1388 17.6133 11.3703 20.9346C11.0062 22.5093 10.7297 24.8959 10.5369 27.0078H9.52007C9.47691 25.0224 9.5678 18.8598 12.1172 14.9226C12.7234 13.9863 13.0909 13.4796 13.2561 13.2599C13.3455 13.2943 13.4364 13.3186 13.5301 13.3253C13.553 13.3271 13.5754 13.3278 13.5979 13.3278C14.6969 13.3278 15.3987 11.3633 15.5306 10.9622C15.5768 10.8213 15.5557 10.6636 15.4744 10.5448C15.4108 10.4515 15.3495 10.3548 15.2891 10.2561C16.9625 9.96593 18.5244 10.1601 19.7334 10.8258C22.6498 12.4312 26.1326 12.7797 27.2358 12.8519C27.2549 13.5858 27.1727 15.2327 26.1127 15.796Z" fill="#2E2C33"/>
</svg>
