<svg width="32" height="32" viewBox="0 0 32 32" fill="none" xmlns="http://www.w3.org/2000/svg">
<path d="M4.37474 31.9998H27.6254C27.8323 31.9998 28 31.8244 28 31.608V22.5496C27.9993 21.3776 27.6642 20.2323 27.0376 19.2605C26.411 18.2888 25.5216 17.5348 24.4829 17.0951L24.152 15.4307L24.1511 15.426L22.6714 7.99049H23.0897C23.434 7.99002 23.7642 7.84681 24.0077 7.59211C24.251 7.33742 24.3879 6.99222 24.3884 6.63212V6.59083C24.3879 6.23072 24.251 5.88531 24.0077 5.6306C23.7642 5.37614 23.434 5.23292 23.0897 5.23246H22.4273C22.0687 3.80082 21.2825 2.52646 20.1832 1.59464C18.9894 0.57004 17.4945 0.00698593 15.9501 0C14.4811 0.00303207 13.0551 0.519651 11.899 1.46776C10.743 2.41588 9.92314 3.74111 9.56991 5.2327H8.91008C8.5658 5.23316 8.23581 5.37637 7.99229 5.63107C7.7488 5.88553 7.61188 6.23096 7.61144 6.59107V6.63235C7.61189 6.99247 7.74879 7.33763 7.99229 7.59235C8.2358 7.84707 8.56581 7.99025 8.91008 7.99072H9.05257L6.8633 17.4253C5.99455 17.9375 5.27188 18.6818 4.76863 19.5823C4.26558 20.4828 4.00023 21.5069 4 22.5497V31.6082C4 31.8246 4.16768 32 4.37461 32L4.37474 31.9998ZM27.2509 27.862C27.2509 28.0784 27.2509 28.6456 27.2509 28.6456V31.2162H24.149V26.7993C24.8566 26.8656 25.5645 26.8989 26.2727 26.8994C26.5987 26.8994 26.9247 26.8922 27.2507 26.8779L27.2509 27.862ZM27.2509 24.2379C23.9745 24.6232 20.0356 23.2649 19.995 23.2507C19.7988 23.1821 19.5865 23.2929 19.5208 23.4981C19.4552 23.7034 19.5611 23.9254 19.7573 23.994C19.9079 24.0465 22.9362 25.0921 25.9886 25.0921C26.4102 25.093 26.8319 25.0711 27.2513 25.0263V26.0926C24.5972 26.206 21.9437 25.8491 19.4029 25.0377C18.1544 24.6407 16.9358 24.1482 15.7567 23.5636C15.6666 23.5167 15.5625 23.5095 15.4673 23.544C15.3723 23.5783 15.2945 23.6511 15.2512 23.746C15.2082 23.8409 15.2033 23.9501 15.2378 24.049C15.2724 24.1476 15.3433 24.2279 15.4349 24.2713C16.6433 24.8702 17.892 25.3756 19.1712 25.7831C20.5526 26.222 21.9676 26.5343 23.4008 26.717V31.2162H18.1489C15.191 29.9238 12.267 24.2482 11.0328 21.5953C11.5254 21.9549 12.0588 22.3225 12.6316 22.6885C12.7224 22.7466 12.8136 22.804 12.9046 22.8609C13.0203 22.9339 13.1646 22.936 13.2823 22.8667C13.4 22.7972 13.4727 22.6668 13.4727 22.5255V22.5248C13.4725 22.3865 13.4027 22.2584 13.289 22.1877C13.2069 22.1367 13.1251 22.0851 13.0435 22.0331C10.3853 20.3379 8.56197 18.5728 7.82879 17.8101V17.8103C8.39561 17.5748 9.00014 17.4539 9.6102 17.4542H12.3391C12.7268 17.7189 14.2293 18.7041 16.5777 19.7646C18.9962 20.8564 22.7884 22.2236 27.2512 22.6215L27.2509 24.2379ZM18.8437 14.3245C18.6771 13.7873 18.3518 13.3195 17.9148 12.988C17.4775 12.6566 16.951 12.4791 16.411 12.481H15.5892C15.0374 12.4821 14.5007 12.6694 14.0585 13.0151C13.6165 13.3607 13.293 13.8463 13.136 14.3998C12.4421 13.6625 12.0405 12.678 12.0122 11.6439L12.0871 7.99023H19.7888L19.9099 11.539C19.9083 12.5762 19.5268 13.573 18.8433 14.3247L18.8437 14.3245ZM19.9949 14.0278L20.085 16.6702H19.3175V14.9384C19.5766 14.6638 19.8041 14.3581 19.9949 14.0278ZM15.9376 16.4162C16.8736 16.4178 17.789 16.1288 18.5681 15.5863V16.6704H13.4333V15.6525C14.1813 16.1519 15.0503 16.4169 15.9376 16.4162ZM13.7891 14.9608C13.8366 14.4959 14.0467 14.0656 14.3789 13.7526C14.7109 13.4396 15.1419 13.2658 15.589 13.2649H16.4105C16.8478 13.2635 17.2705 13.4282 17.6003 13.7286C17.9302 14.029 18.1444 14.4444 18.2033 14.8976C17.5368 15.3773 16.7465 15.6337 15.9376 15.6325C15.1741 15.6332 14.4273 15.3997 13.7893 14.9608L13.7891 14.9608ZM12.684 15.0335V16.6704H11.9094L11.962 14.0973C12.1652 14.439 12.4078 14.7534 12.684 15.0333L12.684 15.0335ZM15.9297 7.20631L17.0654 6.01583H18.7949L17.6592 7.20631H15.9297ZM14.8712 7.20631H12.9516L14.0873 6.01583H16.0069L14.8712 7.20631ZM11.8931 7.20631H10.037L11.1726 6.01583H13.0288L11.8931 7.20631ZM27.2011 21.8308C22.8958 21.4298 19.2352 20.1095 16.8925 19.0534C15.8335 18.578 14.7993 18.0442 13.7944 17.4541H22.39C23.5609 17.4569 24.6916 17.9007 25.5753 18.7044C26.4588 19.5084 27.0358 20.6182 27.2009 21.8307L27.2011 21.8308ZM23.3235 15.1153L23.4796 15.899L23.6633 16.8231C23.2461 16.7214 22.8189 16.6701 22.3905 16.6704H20.8345L20.6818 12.1924L20.655 11.4088L20.5384 7.99043H20.6862L21.4392 7.99043H21.9062L23.3235 15.1153ZM23.0213 6.01631H23.09C23.3933 6.01655 23.6392 6.27381 23.6394 6.59101V6.63229C23.6392 6.94949 23.3933 7.20676 23.09 7.20699H21.8854L23.0213 6.01631ZM20.8272 7.20678H18.7175L19.8532 6.01631H21.9628L20.8272 7.20678ZM15.9499 0.783913C18.5595 0.783913 20.93 2.66569 21.6502 5.23293H10.3448C10.6891 3.95457 11.4225 2.82828 12.4342 2.02544C13.4456 1.22241 14.6798 0.786719 15.9497 0.783913H15.9499ZM8.97829 7.20678H8.90961C8.60636 7.20655 8.36063 6.94929 8.36019 6.63209V6.59081C8.36063 6.2736 8.60636 6.01634 8.90961 6.01611H10.1137L8.97829 7.20678ZM8.03305 15.7045L8.21478 14.9209L9.82293 7.99046H10.2624H11.0119H11.337L11.1597 16.6709H9.60932C8.9689 16.6702 8.33322 16.7852 7.73002 17.0105L8.03305 15.7045ZM4.74898 29.1665V28.3828V22.5498C4.7492 20.758 5.64873 19.0979 7.11817 18.1768C7.94811 19.0559 8.83513 19.8744 9.77255 20.6263C10.4966 22.3175 11.3138 23.9635 12.22 25.5558C13.7637 28.2488 15.2512 30.144 16.6587 31.2167H8.56198V26.3406C8.56198 26.1244 8.3943 25.9488 8.18737 25.9488C7.98044 25.9488 7.81276 26.1244 7.81276 26.3406V31.2167H4.74921L4.74898 29.1665Z" fill="#2E2C33"/>
</svg>
