<svg width="32" height="32" viewBox="0 0 32 32" fill="none" xmlns="http://www.w3.org/2000/svg">
<path fill-rule="evenodd" clip-rule="evenodd" d="M29.9295 25.18L16.4767 4.20493C16.3831 4.06839 16.2581 4 16.1022 4C15.9461 4 15.8213 4.06839 15.7277 4.20493L2.08769 25.18C1.99407 25.3509 1.96293 25.5558 2.05656 25.7266C2.15018 25.8975 2.30629 26 2.46239 26H29.5239C29.7112 26 29.8673 25.8975 29.9298 25.7266C30.0234 25.5558 30.023 25.3509 29.9295 25.18ZM3.36728 24.9751L16.1021 5.36646L28.6497 24.9751H3.36728ZM11.1393 15.2009C10.9207 15.3718 10.8896 15.6792 11.0145 15.9184C11.1081 16.055 11.2642 16.1234 11.389 16.1234C11.4826 16.1234 11.5763 16.0893 11.6699 16.0209C11.6732 16.0209 11.6989 16.003 11.7448 15.9711C12.1292 15.7036 13.9317 14.4494 15.8837 14.4494C18.0686 14.4494 19.6917 15.4059 19.7229 15.4399C19.8165 15.5083 19.9415 15.5083 20.0662 15.474L20.8777 15.2348C21.1274 15.1664 21.2835 14.893 21.2211 14.62C21.1586 14.3466 20.9089 14.1758 20.6594 14.2442L20.0038 14.4151C19.5043 14.1417 17.9437 13.3902 15.8835 13.3902C13.4984 13.4233 11.3759 15.0227 11.1551 15.1891L11.1393 15.2009ZM20.0362 16.4007H20.6918C20.9415 16.4007 21.1287 16.6397 21.1287 16.9135C21.1287 17.1866 20.9103 17.4259 20.6606 17.4259H20.0365C19.8492 17.6307 19.4745 17.9382 18.9128 18.2114V19.7146C18.9128 19.9196 19.0689 20.0904 19.2562 20.0904C19.5056 20.0904 19.7243 20.3294 19.7243 20.6028C19.7243 20.8758 19.5059 21.1151 19.2562 21.1151C18.538 21.1151 17.9764 20.466 17.9764 19.7144V18.5873C16.7279 19.1336 16.2595 19.6462 15.6354 20.9101C15.0423 22.1742 14.2308 22.9258 13.388 23.0624C13.2944 23.0965 13.2319 23.0965 13.1383 23.0965C12.67 23.0965 12.0458 22.8915 11.3591 22.1058C10.7972 21.4227 10.8596 20.3637 11.4839 19.6121C12.0144 18.963 12.9508 18.6554 13.8872 19.3729L13.9184 19.407C14.3868 19.8171 14.4804 20.4319 14.2307 20.9785C13.9498 21.5592 13.3253 21.8326 12.7636 21.6617C12.5139 21.5592 12.3889 21.2859 12.4514 21.0125C12.5451 20.7393 12.7948 20.6025 13.0445 20.6709C13.2318 20.7392 13.3565 20.6025 13.419 20.5C13.4502 20.4659 13.4812 20.3632 13.3565 20.2266C12.7634 19.7825 12.3578 20.1583 12.2017 20.3291C11.9522 20.6365 11.8272 21.1147 12.0769 21.4565C12.4828 21.9348 12.8884 22.174 13.2942 22.1055C13.8248 22.0031 14.3868 21.4224 14.8549 20.4659C15.1671 19.7827 15.5104 19.2702 15.8849 18.8603C14.3554 18.7919 12.3577 18.0403 11.671 17.2887C11.5774 17.1863 11.5463 17.0495 11.5463 16.913C11.5463 16.7764 11.6088 16.6396 11.7024 16.5372C12.5764 15.7175 14.8237 15.0684 16.1657 15.0684C18.2258 15.0684 19.5992 16.0248 20.0362 16.4007ZM15.1047 16.9473C15.1047 16.6056 15.2606 16.2982 15.4792 16.1273C14.5739 16.2638 13.5127 16.5713 12.8888 16.9132C13.5129 17.289 14.543 17.6647 15.5105 17.7672C15.2608 17.5964 15.1047 17.289 15.1047 16.9473ZM17.7266 17.5962C17.789 17.5621 17.8202 17.5621 17.8827 17.5621C18.4444 17.3913 18.8188 17.1522 19.0686 16.9812C18.5692 16.6395 17.6641 16.1955 16.4779 16.1271C16.7588 16.298 16.9149 16.6395 16.9149 16.9812C16.9149 17.3569 16.7277 17.6644 16.4779 17.8352C16.9149 17.8012 17.3207 17.7328 17.6641 17.6303C17.6823 17.6105 17.6899 17.6022 17.6992 17.5988C17.7059 17.5962 17.7135 17.5962 17.7266 17.5962Z" fill="#2E2C33"/>
</svg>
